# xmcd
#
# Track frame offsets:
# 150
# 15525
# 28922
# 43202
# 58132
# 68640
# 83787
# 97062
# 112595
# 127445
#
# Disc length: 1821 seconds
#
#
# Revision: 0
# Processed by: cddbd v1.5.1PL0 Copyright (c) Steve Scherf et al.
# Submitted via: FreeRIP 2.942 
#
DISCID=89071b0a
DTITLE=Jesse Evatte - Back to Basics
DYEAR=1900
DGENRE=Gospel
TTITLE0=Mansion over the hilltop
TTITLE1=Until then
TTITLE2=Just a closer walk with thee
TTITLE3=If that isn't love
TTITLE4=When we all get to Heaven
TTITLE5=Life's railway to Heaven
TTITLE6=Suppertime
TTITLE7=Thank's to Calvary
TTITLE8=It is no secret
TTITLE9=I'll fly away
EXTD=
EXTT0=
EXTT1=
EXTT2=
EXTT3=
EXTT4=
EXTT5=
EXTT6=
EXTT7=
EXTT8=
EXTT9=
PLAYORDER=
